<mxfile host="Electron" modified="2024-01-14T01:31:00.895Z" agent="Mozilla/5.0 (Macintosh; Intel Mac OS X 10_15_7) AppleWebKit/537.36 (KHTML, like Gecko) draw.io/22.1.11 Chrome/114.0.5735.289 Electron/25.9.8 Safari/537.36" etag="T18J39eor-iOFEfNbl_j" version="22.1.11" type="device">
  <diagram name="Page-1" id="he1J6ECHlijhTpJhyoLH">
    <mxGraphModel dx="1674" dy="907" grid="1" gridSize="10" guides="1" tooltips="1" connect="1" arrows="1" fold="1" page="1" pageScale="1" pageWidth="850" pageHeight="1100" math="0" shadow="0">
      <root>
        <mxCell id="0" />
        <mxCell id="1" parent="0" />
        <mxCell id="aj3z7WTQbFRk887yGRbs-28" value="" style="image;aspect=fixed;perimeter=ellipsePerimeter;html=1;align=center;shadow=0;dashed=0;spacingTop=3;image=img/lib/active_directory/internet_globe.svg;" vertex="1" parent="1">
          <mxGeometry x="40" y="500" width="60" height="60" as="geometry" />
        </mxCell>
        <mxCell id="aj3z7WTQbFRk887yGRbs-29" value="Internet" style="text;html=1;align=center;verticalAlign=middle;resizable=0;points=[];autosize=1;strokeColor=none;fillColor=none;" vertex="1" parent="1">
          <mxGeometry x="40" y="560" width="60" height="30" as="geometry" />
        </mxCell>
        <mxCell id="aj3z7WTQbFRk887yGRbs-30" value="" style="outlineConnect=0;dashed=0;verticalLabelPosition=bottom;verticalAlign=top;align=center;html=1;shape=mxgraph.aws3.internet_gateway;fillColor=#F58534;gradientColor=none;" vertex="1" parent="1">
          <mxGeometry x="160" y="500" width="59" height="60" as="geometry" />
        </mxCell>
        <mxCell id="aj3z7WTQbFRk887yGRbs-31" value="Internet Gateway" style="text;html=1;align=center;verticalAlign=middle;resizable=0;points=[];autosize=1;strokeColor=none;fillColor=none;" vertex="1" parent="1">
          <mxGeometry x="134.5" y="560" width="110" height="30" as="geometry" />
        </mxCell>
        <mxCell id="aj3z7WTQbFRk887yGRbs-36" value="" style="sketch=0;outlineConnect=0;fontColor=#232F3E;gradientColor=none;fillColor=#8C4FFF;strokeColor=none;dashed=0;verticalLabelPosition=bottom;verticalAlign=top;align=center;html=1;fontSize=12;fontStyle=0;aspect=fixed;pointerEvents=1;shape=mxgraph.aws4.nat_gateway;" vertex="1" parent="1">
          <mxGeometry x="300" y="501" width="59" height="59" as="geometry" />
        </mxCell>
        <mxCell id="aj3z7WTQbFRk887yGRbs-37" value="NAT Gateway" style="text;html=1;align=center;verticalAlign=middle;resizable=0;points=[];autosize=1;strokeColor=none;fillColor=none;" vertex="1" parent="1">
          <mxGeometry x="279.5" y="560" width="100" height="30" as="geometry" />
        </mxCell>
        <mxCell id="aj3z7WTQbFRk887yGRbs-39" value="" style="endArrow=none;dashed=1;html=1;rounded=0;" edge="1" parent="1">
          <mxGeometry width="50" height="50" relative="1" as="geometry">
            <mxPoint x="480" y="680" as="sourcePoint" />
            <mxPoint x="480" y="680" as="targetPoint" />
            <Array as="points">
              <mxPoint x="480" y="1080" />
              <mxPoint x="1240" y="1080" />
              <mxPoint x="1240" y="680" />
            </Array>
          </mxGeometry>
        </mxCell>
        <mxCell id="aj3z7WTQbFRk887yGRbs-40" value="" style="endArrow=none;dashed=1;html=1;rounded=0;" edge="1" parent="1">
          <mxGeometry width="50" height="50" relative="1" as="geometry">
            <mxPoint x="480" y="40" as="sourcePoint" />
            <mxPoint x="480" y="40" as="targetPoint" />
            <Array as="points">
              <mxPoint x="480" y="440" />
              <mxPoint x="1240" y="440" />
              <mxPoint x="1240" y="40" />
            </Array>
          </mxGeometry>
        </mxCell>
        <mxCell id="aj3z7WTQbFRk887yGRbs-41" value="Availability Zone : eu-west-1a" style="text;html=1;align=center;verticalAlign=middle;resizable=0;points=[];autosize=1;strokeColor=none;fillColor=none;" vertex="1" parent="1">
          <mxGeometry x="480" y="38" width="180" height="30" as="geometry" />
        </mxCell>
        <mxCell id="aj3z7WTQbFRk887yGRbs-42" value="&lt;span style=&quot;color: rgb(240, 240, 240); font-family: Helvetica; font-size: 12px; font-style: normal; font-variant-ligatures: normal; font-variant-caps: normal; font-weight: 400; letter-spacing: normal; orphans: 2; text-align: center; text-indent: 0px; text-transform: none; widows: 2; word-spacing: 0px; -webkit-text-stroke-width: 0px; background-color: rgb(27, 29, 30); text-decoration-thickness: initial; text-decoration-style: initial; text-decoration-color: initial; float: none; display: inline !important;&quot;&gt;Availability Zone : eu-west-1b&lt;/span&gt;" style="text;whiteSpace=wrap;html=1;" vertex="1" parent="1">
          <mxGeometry x="480" y="680" width="160" height="30" as="geometry" />
        </mxCell>
        <mxCell id="aj3z7WTQbFRk887yGRbs-43" value="" style="endArrow=none;dashed=1;html=1;rounded=0;" edge="1" parent="1">
          <mxGeometry width="50" height="50" relative="1" as="geometry">
            <mxPoint x="400" y="580" as="sourcePoint" />
            <mxPoint x="400" y="580" as="targetPoint" />
            <Array as="points">
              <mxPoint x="500" y="580" />
              <mxPoint x="500" y="478" />
              <mxPoint x="400" y="478" />
            </Array>
          </mxGeometry>
        </mxCell>
        <mxCell id="aj3z7WTQbFRk887yGRbs-45" value="" style="outlineConnect=0;dashed=0;verticalLabelPosition=bottom;verticalAlign=top;align=center;html=1;shape=mxgraph.aws3.application_load_balancer;fillColor=#F58534;gradientColor=none;" vertex="1" parent="1">
          <mxGeometry x="425" y="501" width="60" height="60" as="geometry" />
        </mxCell>
        <mxCell id="aj3z7WTQbFRk887yGRbs-47" value="ALB" style="text;html=1;align=center;verticalAlign=middle;resizable=0;points=[];autosize=1;strokeColor=none;fillColor=none;" vertex="1" parent="1">
          <mxGeometry x="430" y="550" width="50" height="30" as="geometry" />
        </mxCell>
        <mxCell id="aj3z7WTQbFRk887yGRbs-48" value="alb-sg" style="text;html=1;align=center;verticalAlign=middle;resizable=0;points=[];autosize=1;strokeColor=none;fillColor=none;" vertex="1" parent="1">
          <mxGeometry x="395" y="471" width="60" height="30" as="geometry" />
        </mxCell>
        <mxCell id="aj3z7WTQbFRk887yGRbs-49" value="" style="endArrow=classic;startArrow=classic;html=1;rounded=0;" edge="1" parent="1">
          <mxGeometry width="50" height="50" relative="1" as="geometry">
            <mxPoint x="100" y="530" as="sourcePoint" />
            <mxPoint x="160" y="530" as="targetPoint" />
          </mxGeometry>
        </mxCell>
        <mxCell id="aj3z7WTQbFRk887yGRbs-50" value="" style="endArrow=classic;startArrow=classic;html=1;rounded=0;" edge="1" parent="1" target="aj3z7WTQbFRk887yGRbs-36">
          <mxGeometry width="50" height="50" relative="1" as="geometry">
            <mxPoint x="219" y="530" as="sourcePoint" />
            <mxPoint x="290" y="530" as="targetPoint" />
          </mxGeometry>
        </mxCell>
        <mxCell id="aj3z7WTQbFRk887yGRbs-51" value="" style="endArrow=classic;startArrow=classic;html=1;rounded=0;" edge="1" parent="1" target="aj3z7WTQbFRk887yGRbs-45">
          <mxGeometry width="50" height="50" relative="1" as="geometry">
            <mxPoint x="359" y="530" as="sourcePoint" />
            <mxPoint x="440" y="530" as="targetPoint" />
          </mxGeometry>
        </mxCell>
        <mxCell id="aj3z7WTQbFRk887yGRbs-64" value="Public subnet" style="points=[[0,0],[0.25,0],[0.5,0],[0.75,0],[1,0],[1,0.25],[1,0.5],[1,0.75],[1,1],[0.75,1],[0.5,1],[0.25,1],[0,1],[0,0.75],[0,0.5],[0,0.25]];outlineConnect=0;gradientColor=none;html=1;whiteSpace=wrap;fontSize=12;fontStyle=0;container=1;pointerEvents=0;collapsible=0;recursiveResize=0;shape=mxgraph.aws4.group;grIcon=mxgraph.aws4.group_security_group;grStroke=0;strokeColor=#7AA116;fillColor=#F2F6E8;verticalAlign=top;align=left;spacingLeft=30;fontColor=#248814;dashed=0;" vertex="1" parent="1">
          <mxGeometry x="505" y="80" width="183.75" height="340" as="geometry" />
        </mxCell>
        <mxCell id="aj3z7WTQbFRk887yGRbs-72" value="10.0.1.0/24" style="text;html=1;align=center;verticalAlign=middle;resizable=0;points=[];autosize=1;strokeColor=#000000;fillColor=#000000;" vertex="1" parent="aj3z7WTQbFRk887yGRbs-64">
          <mxGeometry x="103.75" width="80" height="30" as="geometry" />
        </mxCell>
        <mxCell id="aj3z7WTQbFRk887yGRbs-66" value="Public subnet" style="points=[[0,0],[0.25,0],[0.5,0],[0.75,0],[1,0],[1,0.25],[1,0.5],[1,0.75],[1,1],[0.75,1],[0.5,1],[0.25,1],[0,1],[0,0.75],[0,0.5],[0,0.25]];outlineConnect=0;gradientColor=none;html=1;whiteSpace=wrap;fontSize=12;fontStyle=0;container=1;pointerEvents=0;collapsible=0;recursiveResize=0;shape=mxgraph.aws4.group;grIcon=mxgraph.aws4.group_security_group;grStroke=0;strokeColor=#7AA116;fillColor=#F2F6E8;verticalAlign=top;align=left;spacingLeft=30;fontColor=#248814;dashed=0;" vertex="1" parent="1">
          <mxGeometry x="500" y="710" width="188.75" height="340" as="geometry" />
        </mxCell>
        <mxCell id="aj3z7WTQbFRk887yGRbs-74" value="10.0.2.0/24" style="text;html=1;align=center;verticalAlign=middle;resizable=0;points=[];autosize=1;strokeColor=#000000;fillColor=#000000;" vertex="1" parent="aj3z7WTQbFRk887yGRbs-66">
          <mxGeometry x="108.75" width="80" height="30" as="geometry" />
        </mxCell>
        <mxCell id="aj3z7WTQbFRk887yGRbs-69" value="Auto Scaling group" style="points=[[0,0],[0.25,0],[0.5,0],[0.75,0],[1,0],[1,0.25],[1,0.5],[1,0.75],[1,1],[0.75,1],[0.5,1],[0.25,1],[0,1],[0,0.75],[0,0.5],[0,0.25]];outlineConnect=0;gradientColor=none;html=1;whiteSpace=wrap;fontSize=12;fontStyle=0;container=1;pointerEvents=0;collapsible=0;recursiveResize=0;shape=mxgraph.aws4.groupCenter;grIcon=mxgraph.aws4.group_auto_scaling_group;grStroke=1;strokeColor=#D86613;fillColor=none;verticalAlign=top;align=center;fontColor=#D86613;dashed=1;spacingTop=25;" vertex="1" parent="1">
          <mxGeometry x="537.5" y="120" width="82.5" height="880" as="geometry" />
        </mxCell>
        <mxCell id="aj3z7WTQbFRk887yGRbs-60" value="" style="sketch=0;points=[[0,0,0],[0.25,0,0],[0.5,0,0],[0.75,0,0],[1,0,0],[0,1,0],[0.25,1,0],[0.5,1,0],[0.75,1,0],[1,1,0],[0,0.25,0],[0,0.5,0],[0,0.75,0],[1,0.25,0],[1,0.5,0],[1,0.75,0]];outlineConnect=0;fontColor=#232F3E;fillColor=#ED7100;strokeColor=#ffffff;dashed=0;verticalLabelPosition=bottom;verticalAlign=top;align=center;html=1;fontSize=12;fontStyle=0;aspect=fixed;shape=mxgraph.aws4.resourceIcon;resIcon=mxgraph.aws4.ec2;" vertex="1" parent="aj3z7WTQbFRk887yGRbs-69">
          <mxGeometry x="11.25" y="720" width="60" height="60" as="geometry" />
        </mxCell>
        <mxCell id="aj3z7WTQbFRk887yGRbs-59" value="" style="sketch=0;points=[[0,0,0],[0.25,0,0],[0.5,0,0],[0.75,0,0],[1,0,0],[0,1,0],[0.25,1,0],[0.5,1,0],[0.75,1,0],[1,1,0],[0,0.25,0],[0,0.5,0],[0,0.75,0],[1,0.25,0],[1,0.5,0],[1,0.75,0]];outlineConnect=0;fontColor=#232F3E;fillColor=#ED7100;strokeColor=#ffffff;dashed=0;verticalLabelPosition=bottom;verticalAlign=top;align=center;html=1;fontSize=12;fontStyle=0;aspect=fixed;shape=mxgraph.aws4.resourceIcon;resIcon=mxgraph.aws4.ec2;" vertex="1" parent="aj3z7WTQbFRk887yGRbs-69">
          <mxGeometry x="11.25" y="80" width="60" height="60" as="geometry" />
        </mxCell>
        <mxCell id="aj3z7WTQbFRk887yGRbs-70" value="web-sg" style="text;html=1;align=center;verticalAlign=middle;resizable=0;points=[];autosize=1;strokeColor=none;fillColor=none;" vertex="1" parent="aj3z7WTQbFRk887yGRbs-69">
          <mxGeometry x="-7.5" y="318" width="60" height="30" as="geometry" />
        </mxCell>
        <mxCell id="aj3z7WTQbFRk887yGRbs-75" value="EC2" style="text;html=1;align=center;verticalAlign=middle;resizable=0;points=[];autosize=1;strokeColor=none;fillColor=#000000;" vertex="1" parent="aj3z7WTQbFRk887yGRbs-69">
          <mxGeometry x="16.25" y="140" width="50" height="30" as="geometry" />
        </mxCell>
        <mxCell id="aj3z7WTQbFRk887yGRbs-76" value="EC2" style="text;html=1;align=center;verticalAlign=middle;resizable=0;points=[];autosize=1;strokeColor=none;fillColor=#000000;" vertex="1" parent="aj3z7WTQbFRk887yGRbs-69">
          <mxGeometry x="16.25" y="780" width="50" height="30" as="geometry" />
        </mxCell>
        <mxCell id="aj3z7WTQbFRk887yGRbs-81" value="" style="endArrow=classic;startArrow=classic;html=1;rounded=0;exitX=0.619;exitY=0.967;exitDx=0;exitDy=0;exitPerimeter=0;" edge="1" parent="aj3z7WTQbFRk887yGRbs-69" source="aj3z7WTQbFRk887yGRbs-42">
          <mxGeometry width="50" height="50" relative="1" as="geometry">
            <mxPoint x="42.5" y="500" as="sourcePoint" />
            <mxPoint x="42.5" y="300" as="targetPoint" />
          </mxGeometry>
        </mxCell>
        <mxCell id="aj3z7WTQbFRk887yGRbs-80" value="" style="endArrow=classic;startArrow=classic;html=1;rounded=0;" edge="1" parent="1">
          <mxGeometry width="50" height="50" relative="1" as="geometry">
            <mxPoint x="500" y="530.5" as="sourcePoint" />
            <mxPoint x="580" y="531" as="targetPoint" />
          </mxGeometry>
        </mxCell>
        <mxCell id="aj3z7WTQbFRk887yGRbs-82" value="" style="endArrow=none;dashed=1;html=1;rounded=0;" edge="1" parent="1">
          <mxGeometry width="50" height="50" relative="1" as="geometry">
            <mxPoint x="650" y="582" as="sourcePoint" />
            <mxPoint x="650" y="582" as="targetPoint" />
            <Array as="points">
              <mxPoint x="750" y="582" />
              <mxPoint x="750" y="480" />
              <mxPoint x="650" y="480" />
            </Array>
          </mxGeometry>
        </mxCell>
        <mxCell id="aj3z7WTQbFRk887yGRbs-83" value="" style="outlineConnect=0;dashed=0;verticalLabelPosition=bottom;verticalAlign=top;align=center;html=1;shape=mxgraph.aws3.application_load_balancer;fillColor=#F58534;gradientColor=none;" vertex="1" parent="1">
          <mxGeometry x="670" y="500" width="60" height="60" as="geometry" />
        </mxCell>
        <mxCell id="aj3z7WTQbFRk887yGRbs-84" value="alb-sg" style="text;html=1;align=center;verticalAlign=middle;resizable=0;points=[];autosize=1;strokeColor=none;fillColor=none;" vertex="1" parent="1">
          <mxGeometry x="700" y="471" width="60" height="30" as="geometry" />
        </mxCell>
        <mxCell id="aj3z7WTQbFRk887yGRbs-85" value="ALB" style="text;html=1;align=center;verticalAlign=middle;resizable=0;points=[];autosize=1;strokeColor=none;fillColor=none;" vertex="1" parent="1">
          <mxGeometry x="675" y="548" width="50" height="30" as="geometry" />
        </mxCell>
        <mxCell id="aj3z7WTQbFRk887yGRbs-86" value="" style="endArrow=classic;startArrow=classic;html=1;rounded=0;" edge="1" parent="1">
          <mxGeometry width="50" height="50" relative="1" as="geometry">
            <mxPoint x="620" y="530" as="sourcePoint" />
            <mxPoint x="670" y="530" as="targetPoint" />
          </mxGeometry>
        </mxCell>
        <mxCell id="aj3z7WTQbFRk887yGRbs-87" value="Private subnet" style="points=[[0,0],[0.25,0],[0.5,0],[0.75,0],[1,0],[1,0.25],[1,0.5],[1,0.75],[1,1],[0.75,1],[0.5,1],[0.25,1],[0,1],[0,0.75],[0,0.5],[0,0.25]];outlineConnect=0;gradientColor=none;html=1;whiteSpace=wrap;fontSize=12;fontStyle=0;container=1;pointerEvents=0;collapsible=0;recursiveResize=0;shape=mxgraph.aws4.group;grIcon=mxgraph.aws4.group_security_group;grStroke=0;strokeColor=#00A4A6;fillColor=#E6F6F7;verticalAlign=top;align=left;spacingLeft=30;fontColor=#147EBA;dashed=0;" vertex="1" parent="1">
          <mxGeometry x="770" y="80" width="190" height="330" as="geometry" />
        </mxCell>
        <mxCell id="aj3z7WTQbFRk887yGRbs-90" value="10.0.3.0/24" style="text;html=1;align=center;verticalAlign=middle;resizable=0;points=[];autosize=1;strokeColor=#000000;fillColor=#000000;" vertex="1" parent="aj3z7WTQbFRk887yGRbs-87">
          <mxGeometry x="110" width="80" height="30" as="geometry" />
        </mxCell>
        <mxCell id="aj3z7WTQbFRk887yGRbs-89" value="Private subnet" style="points=[[0,0],[0.25,0],[0.5,0],[0.75,0],[1,0],[1,0.25],[1,0.5],[1,0.75],[1,1],[0.75,1],[0.5,1],[0.25,1],[0,1],[0,0.75],[0,0.5],[0,0.25]];outlineConnect=0;gradientColor=none;html=1;whiteSpace=wrap;fontSize=12;fontStyle=0;container=1;pointerEvents=0;collapsible=0;recursiveResize=0;shape=mxgraph.aws4.group;grIcon=mxgraph.aws4.group_security_group;grStroke=0;strokeColor=#00A4A6;fillColor=#E6F6F7;verticalAlign=top;align=left;spacingLeft=30;fontColor=#147EBA;dashed=0;" vertex="1" parent="1">
          <mxGeometry x="770" y="715" width="190" height="330" as="geometry" />
        </mxCell>
        <mxCell id="aj3z7WTQbFRk887yGRbs-91" value="10.0.4.0/24" style="text;html=1;align=center;verticalAlign=middle;resizable=0;points=[];autosize=1;strokeColor=#000000;fillColor=#000000;" vertex="1" parent="aj3z7WTQbFRk887yGRbs-89">
          <mxGeometry x="110" width="80" height="30" as="geometry" />
        </mxCell>
        <mxCell id="aj3z7WTQbFRk887yGRbs-111" value="Auto Scaling group" style="points=[[0,0],[0.25,0],[0.5,0],[0.75,0],[1,0],[1,0.25],[1,0.5],[1,0.75],[1,1],[0.75,1],[0.5,1],[0.25,1],[0,1],[0,0.75],[0,0.5],[0,0.25]];outlineConnect=0;gradientColor=none;html=1;whiteSpace=wrap;fontSize=12;fontStyle=0;container=1;pointerEvents=0;collapsible=0;recursiveResize=0;shape=mxgraph.aws4.groupCenter;grIcon=mxgraph.aws4.group_auto_scaling_group;grStroke=1;strokeColor=#D86613;fillColor=none;verticalAlign=top;align=center;fontColor=#D86613;dashed=1;spacingTop=25;" vertex="1" parent="1">
          <mxGeometry x="810" y="120" width="90" height="890" as="geometry" />
        </mxCell>
        <mxCell id="aj3z7WTQbFRk887yGRbs-113" value="" style="endArrow=classic;startArrow=classic;html=1;rounded=0;" edge="1" parent="aj3z7WTQbFRk887yGRbs-111">
          <mxGeometry width="50" height="50" relative="1" as="geometry">
            <mxPoint x="40" y="590" as="sourcePoint" />
            <mxPoint x="39.5" y="290" as="targetPoint" />
          </mxGeometry>
        </mxCell>
        <mxCell id="aj3z7WTQbFRk887yGRbs-115" value="" style="sketch=0;points=[[0,0,0],[0.25,0,0],[0.5,0,0],[0.75,0,0],[1,0,0],[0,1,0],[0.25,1,0],[0.5,1,0],[0.75,1,0],[1,1,0],[0,0.25,0],[0,0.5,0],[0,0.75,0],[1,0.25,0],[1,0.5,0],[1,0.75,0]];outlineConnect=0;fontColor=#232F3E;fillColor=#ED7100;strokeColor=#ffffff;dashed=0;verticalLabelPosition=bottom;verticalAlign=top;align=center;html=1;fontSize=12;fontStyle=0;aspect=fixed;shape=mxgraph.aws4.resourceIcon;resIcon=mxgraph.aws4.ec2;" vertex="1" parent="aj3z7WTQbFRk887yGRbs-111">
          <mxGeometry x="15" y="720" width="60" height="60" as="geometry" />
        </mxCell>
        <mxCell id="aj3z7WTQbFRk887yGRbs-116" value="" style="sketch=0;points=[[0,0,0],[0.25,0,0],[0.5,0,0],[0.75,0,0],[1,0,0],[0,1,0],[0.25,1,0],[0.5,1,0],[0.75,1,0],[1,1,0],[0,0.25,0],[0,0.5,0],[0,0.75,0],[1,0.25,0],[1,0.5,0],[1,0.75,0]];outlineConnect=0;fontColor=#232F3E;fillColor=#ED7100;strokeColor=#ffffff;dashed=0;verticalLabelPosition=bottom;verticalAlign=top;align=center;html=1;fontSize=12;fontStyle=0;aspect=fixed;shape=mxgraph.aws4.resourceIcon;resIcon=mxgraph.aws4.ec2;" vertex="1" parent="aj3z7WTQbFRk887yGRbs-111">
          <mxGeometry x="15" y="80" width="60" height="60" as="geometry" />
        </mxCell>
        <mxCell id="aj3z7WTQbFRk887yGRbs-117" value="EC2" style="text;html=1;align=center;verticalAlign=middle;resizable=0;points=[];autosize=1;strokeColor=none;fillColor=#000000;" vertex="1" parent="aj3z7WTQbFRk887yGRbs-111">
          <mxGeometry x="20" y="140" width="50" height="30" as="geometry" />
        </mxCell>
        <mxCell id="aj3z7WTQbFRk887yGRbs-118" value="EC2" style="text;html=1;align=center;verticalAlign=middle;resizable=0;points=[];autosize=1;strokeColor=none;fillColor=#000000;" vertex="1" parent="aj3z7WTQbFRk887yGRbs-111">
          <mxGeometry x="20" y="780" width="50" height="30" as="geometry" />
        </mxCell>
        <mxCell id="aj3z7WTQbFRk887yGRbs-119" value="app-sg" style="text;html=1;align=center;verticalAlign=middle;resizable=0;points=[];autosize=1;strokeColor=none;fillColor=none;" vertex="1" parent="aj3z7WTQbFRk887yGRbs-111">
          <mxGeometry x="-10" y="318" width="60" height="30" as="geometry" />
        </mxCell>
        <mxCell id="aj3z7WTQbFRk887yGRbs-114" value="" style="endArrow=classic;startArrow=classic;html=1;rounded=0;" edge="1" parent="1">
          <mxGeometry width="50" height="50" relative="1" as="geometry">
            <mxPoint x="750" y="530" as="sourcePoint" />
            <mxPoint x="850" y="531" as="targetPoint" />
          </mxGeometry>
        </mxCell>
        <mxCell id="aj3z7WTQbFRk887yGRbs-120" value="Private subnet" style="points=[[0,0],[0.25,0],[0.5,0],[0.75,0],[1,0],[1,0.25],[1,0.5],[1,0.75],[1,1],[0.75,1],[0.5,1],[0.25,1],[0,1],[0,0.75],[0,0.5],[0,0.25]];outlineConnect=0;gradientColor=none;html=1;whiteSpace=wrap;fontSize=12;fontStyle=0;container=1;pointerEvents=0;collapsible=0;recursiveResize=0;shape=mxgraph.aws4.group;grIcon=mxgraph.aws4.group_security_group;grStroke=0;strokeColor=#00A4A6;fillColor=#E6F6F7;verticalAlign=top;align=left;spacingLeft=30;fontColor=#147EBA;dashed=0;" vertex="1" parent="1">
          <mxGeometry x="1030" y="80" width="190" height="330" as="geometry" />
        </mxCell>
        <mxCell id="aj3z7WTQbFRk887yGRbs-122" value="10.0.5.0/24" style="text;html=1;align=center;verticalAlign=middle;resizable=0;points=[];autosize=1;strokeColor=#000000;fillColor=#000000;" vertex="1" parent="aj3z7WTQbFRk887yGRbs-120">
          <mxGeometry x="110" width="80" height="30" as="geometry" />
        </mxCell>
        <mxCell id="aj3z7WTQbFRk887yGRbs-121" value="Private subnet" style="points=[[0,0],[0.25,0],[0.5,0],[0.75,0],[1,0],[1,0.25],[1,0.5],[1,0.75],[1,1],[0.75,1],[0.5,1],[0.25,1],[0,1],[0,0.75],[0,0.5],[0,0.25]];outlineConnect=0;gradientColor=none;html=1;whiteSpace=wrap;fontSize=12;fontStyle=0;container=1;pointerEvents=0;collapsible=0;recursiveResize=0;shape=mxgraph.aws4.group;grIcon=mxgraph.aws4.group_security_group;grStroke=0;strokeColor=#00A4A6;fillColor=#E6F6F7;verticalAlign=top;align=left;spacingLeft=30;fontColor=#147EBA;dashed=0;" vertex="1" parent="1">
          <mxGeometry x="1030" y="720" width="190" height="330" as="geometry" />
        </mxCell>
        <mxCell id="aj3z7WTQbFRk887yGRbs-123" value="10.0.6.0/24" style="text;html=1;align=center;verticalAlign=middle;resizable=0;points=[];autosize=1;strokeColor=#000000;fillColor=#000000;" vertex="1" parent="aj3z7WTQbFRk887yGRbs-121">
          <mxGeometry x="110" width="80" height="30" as="geometry" />
        </mxCell>
        <mxCell id="aj3z7WTQbFRk887yGRbs-124" value="" style="outlineConnect=0;dashed=0;verticalLabelPosition=bottom;verticalAlign=top;align=center;html=1;shape=mxgraph.aws3.mysql_db_instance;fillColor=#2E73B8;gradientColor=none;" vertex="1" parent="1">
          <mxGeometry x="1090" y="530.75" width="60" height="64.5" as="geometry" />
        </mxCell>
        <mxCell id="aj3z7WTQbFRk887yGRbs-129" value="RDS-MYSQL" style="text;html=1;align=center;verticalAlign=middle;resizable=0;points=[];autosize=1;strokeColor=none;fillColor=none;" vertex="1" parent="1">
          <mxGeometry x="1080" y="595.25" width="90" height="30" as="geometry" />
        </mxCell>
        <mxCell id="aj3z7WTQbFRk887yGRbs-131" value="" style="endArrow=none;dashed=1;html=1;rounded=0;strokeColor=#6666FF;" edge="1" parent="1">
          <mxGeometry width="50" height="50" relative="1" as="geometry">
            <mxPoint x="1070" y="560" as="sourcePoint" />
            <mxPoint x="1070" y="570" as="targetPoint" />
            <Array as="points">
              <mxPoint x="1070" y="880" />
              <mxPoint x="1180" y="880" />
              <mxPoint x="1175" y="530.75" />
              <mxPoint x="1175" y="330" />
              <mxPoint x="1070" y="330" />
            </Array>
          </mxGeometry>
        </mxCell>
        <mxCell id="aj3z7WTQbFRk887yGRbs-132" value="" style="endArrow=classic;startArrow=classic;html=1;rounded=0;" edge="1" parent="1" source="aj3z7WTQbFRk887yGRbs-111">
          <mxGeometry width="50" height="50" relative="1" as="geometry">
            <mxPoint x="1009" y="564.5" as="sourcePoint" />
            <mxPoint x="1090" y="564.5" as="targetPoint" />
          </mxGeometry>
        </mxCell>
        <mxCell id="aj3z7WTQbFRk887yGRbs-133" value="db-sg" style="text;html=1;align=center;verticalAlign=middle;resizable=0;points=[];autosize=1;strokeColor=none;fillColor=none;" vertex="1" parent="1">
          <mxGeometry x="1070" y="441" width="50" height="30" as="geometry" />
        </mxCell>
      </root>
    </mxGraphModel>
  </diagram>
</mxfile>
